<svg xmlns="http://www.w3.org/2000/svg" width="800" height="600" viewBox="0 0 800 600">
  <rect width="800" height="600" fill="#EEF3EE"/>
  <g stroke="#0E2438" fill="none">
    <line x1="259.1" y1="90.5" x2="99.0" y2="133.9" stroke-opacity="0.043" stroke-width="1"/>
    <line x1="259.1" y1="90.5" x2="115.4" y2="70.7" stroke-opacity="0.058" stroke-width="1"/>
    <line x1="259.1" y1="90.5" x2="362.5" y2="179.9" stroke-opacity="0.063" stroke-width="1"/>
    <line x1="259.1" y1="90.5" x2="134.4" y2="70.3" stroke-opacity="0.071" stroke-width="1"/>
    <line x1="520.7" y1="43.5" x2="438.2" y2="37.7" stroke-opacity="0.102" stroke-width="1"/>
    <line x1="520.7" y1="43.5" x2="583.6" y2="172.8" stroke-opacity="0.059" stroke-width="1"/>
    <line x1="428.7" y1="219.4" x2="461.7" y2="238.0" stroke-opacity="0.133" stroke-width="1"/>
    <line x1="428.7" y1="219.4" x2="511.1" y2="223.4" stroke-opacity="0.102" stroke-width="1"/>
    <line x1="428.7" y1="219.4" x2="544.3" y2="256.6" stroke-opacity="0.074" stroke-width="1"/>
    <line x1="428.7" y1="219.4" x2="362.5" y2="179.9" stroke-opacity="0.106" stroke-width="1"/>
    <line x1="428.7" y1="219.4" x2="583.6" y2="172.8" stroke-opacity="0.046" stroke-width="1"/>
    <line x1="428.7" y1="219.4" x2="463.9" y2="273.7" stroke-opacity="0.114" stroke-width="1"/>
    <line x1="46.4" y1="304.5" x2="30.0" y2="260.2" stroke-opacity="0.127" stroke-width="1"/>
    <line x1="46.4" y1="304.5" x2="144.6" y2="349.0" stroke-opacity="0.084" stroke-width="1"/>
    <line x1="46.4" y1="304.5" x2="195.3" y2="344.7" stroke-opacity="0.051" stroke-width="1"/>
    <line x1="46.4" y1="304.5" x2="121.6" y2="293.4" stroke-opacity="0.106" stroke-width="1"/>
    <line x1="46.4" y1="304.5" x2="31.4" y2="400.9" stroke-opacity="0.091" stroke-width="1"/>
    <line x1="46.4" y1="304.5" x2="48.5" y2="420.9" stroke-opacity="0.078" stroke-width="1"/>
    <line x1="46.4" y1="304.5" x2="18.1" y2="277.0" stroke-opacity="0.132" stroke-width="1"/>
    <line x1="46.4" y1="304.5" x2="47.2" y2="460.9" stroke-opacity="0.050" stroke-width="1"/>
    <line x1="30.0" y1="260.2" x2="99.0" y2="133.9" stroke-opacity="0.058" stroke-width="1"/>
    <line x1="30.0" y1="260.2" x2="144.6" y2="349.0" stroke-opacity="0.058" stroke-width="1"/>
    <line x1="30.0" y1="260.2" x2="47.7" y2="123.6" stroke-opacity="0.063" stroke-width="1"/>
    <line x1="30.0" y1="260.2" x2="121.6" y2="293.4" stroke-opacity="0.091" stroke-width="1"/>
    <line x1="30.0" y1="260.2" x2="31.4" y2="400.9" stroke-opacity="0.061" stroke-width="1"/>
    <line x1="30.0" y1="260.2" x2="48.5" y2="420.9" stroke-opacity="0.046" stroke-width="1"/>
    <line x1="30.0" y1="260.2" x2="18.1" y2="277.0" stroke-opacity="0.145" stroke-width="1"/>
    <line x1="55.9" y1="54.4" x2="99.0" y2="133.9" stroke-opacity="0.096" stroke-width="1"/>
    <line x1="55.9" y1="54.4" x2="115.4" y2="70.7" stroke-opacity="0.116" stroke-width="1"/>
    <line x1="55.9" y1="54.4" x2="47.7" y2="123.6" stroke-opacity="0.111" stroke-width="1"/>
    <line x1="55.9" y1="54.4" x2="134.4" y2="70.3" stroke-opacity="0.103" stroke-width="1"/>
    <line x1="339.6" y1="496.1" x2="246.8" y2="489.7" stroke-opacity="0.094" stroke-width="1"/>
    <line x1="339.6" y1="496.1" x2="251.3" y2="351.3" stroke-opacity="0.040" stroke-width="1"/>
    <line x1="339.6" y1="496.1" x2="420.2" y2="525.1" stroke-opacity="0.100" stroke-width="1"/>
    <line x1="339.6" y1="496.1" x2="334.5" y2="454.3" stroke-opacity="0.130" stroke-width="1"/>
    <line x1="339.6" y1="496.1" x2="379.3" y2="398.5" stroke-opacity="0.086" stroke-width="1"/>
    <line x1="339.6" y1="496.1" x2="308.6" y2="401.2" stroke-opacity="0.090" stroke-width="1"/>
    <line x1="99.0" y1="133.9" x2="115.4" y2="70.7" stroke-opacity="0.114" stroke-width="1"/>
    <line x1="99.0" y1="133.9" x2="47.7" y2="123.6" stroke-opacity="0.123" stroke-width="1"/>
    <line x1="99.0" y1="133.9" x2="121.6" y2="293.4" stroke-opacity="0.046" stroke-width="1"/>
    <line x1="99.0" y1="133.9" x2="18.1" y2="277.0" stroke-opacity="0.044" stroke-width="1"/>
    <line x1="99.0" y1="133.9" x2="134.4" y2="70.3" stroke-opacity="0.109" stroke-width="1"/>
    <line x1="501.9" y1="568.6" x2="420.2" y2="525.1" stroke-opacity="0.095" stroke-width="1"/>
    <line x1="501.9" y1="568.6" x2="517.7" y2="595.9" stroke-opacity="0.138" stroke-width="1"/>
    <line x1="461.7" y1="238.0" x2="511.1" y2="223.4" stroke-opacity="0.124" stroke-width="1"/>
    <line x1="461.7" y1="238.0" x2="544.3" y2="256.6" stroke-opacity="0.100" stroke-width="1"/>
    <line x1="461.7" y1="238.0" x2="362.5" y2="179.9" stroke-opacity="0.079" stroke-width="1"/>
    <line x1="461.7" y1="238.0" x2="583.6" y2="172.8" stroke-opacity="0.062" stroke-width="1"/>
    <line x1="461.7" y1="238.0" x2="556.2" y2="356.6" stroke-opacity="0.053" stroke-width="1"/>
    <line x1="461.7" y1="238.0" x2="463.9" y2="273.7" stroke-opacity="0.135" stroke-width="1"/>
    <line x1="781.0" y1="27.9" x2="784.1" y2="70.8" stroke-opacity="0.130" stroke-width="1"/>
    <line x1="686.8" y1="173.8" x2="544.3" y2="256.6" stroke-opacity="0.044" stroke-width="1"/>
    <line x1="686.8" y1="173.8" x2="583.6" y2="172.8" stroke-opacity="0.087" stroke-width="1"/>
    <line x1="686.8" y1="173.8" x2="784.1" y2="70.8" stroke-opacity="0.060" stroke-width="1"/>
    <line x1="686.8" y1="173.8" x2="700.4" y2="188.2" stroke-opacity="0.146" stroke-width="1"/>
    <line x1="686.8" y1="173.8" x2="657.5" y2="170.8" stroke-opacity="0.139" stroke-width="1"/>
    <line x1="115.4" y1="70.7" x2="47.7" y2="123.6" stroke-opacity="0.099" stroke-width="1"/>
    <line x1="115.4" y1="70.7" x2="134.4" y2="70.3" stroke-opacity="0.147" stroke-width="1"/>
    <line x1="246.8" y1="489.7" x2="251.3" y2="351.3" stroke-opacity="0.062" stroke-width="1"/>
    <line x1="246.8" y1="489.7" x2="195.3" y2="344.7" stroke-opacity="0.051" stroke-width="1"/>
    <line x1="246.8" y1="489.7" x2="334.5" y2="454.3" stroke-opacity="0.093" stroke-width="1"/>
    <line x1="246.8" y1="489.7" x2="379.3" y2="398.5" stroke-opacity="0.046" stroke-width="1"/>
    <line x1="246.8" y1="489.7" x2="308.6" y2="401.2" stroke-opacity="0.084" stroke-width="1"/>
    <line x1="144.6" y1="349.0" x2="251.3" y2="351.3" stroke-opacity="0.085" stroke-width="1"/>
    <line x1="144.6" y1="349.0" x2="195.3" y2="344.7" stroke-opacity="0.124" stroke-width="1"/>
    <line x1="144.6" y1="349.0" x2="121.6" y2="293.4" stroke-opacity="0.118" stroke-width="1"/>
    <line x1="144.6" y1="349.0" x2="31.4" y2="400.9" stroke-opacity="0.072" stroke-width="1"/>
    <line x1="144.6" y1="349.0" x2="48.5" y2="420.9" stroke-opacity="0.075" stroke-width="1"/>
    <line x1="144.6" y1="349.0" x2="18.1" y2="277.0" stroke-opacity="0.057" stroke-width="1"/>
    <line x1="144.6" y1="349.0" x2="47.2" y2="460.9" stroke-opacity="0.055" stroke-width="1"/>
    <line x1="511.1" y1="223.4" x2="544.3" y2="256.6" stroke-opacity="0.127" stroke-width="1"/>
    <line x1="511.1" y1="223.4" x2="362.5" y2="179.9" stroke-opacity="0.051" stroke-width="1"/>
    <line x1="511.1" y1="223.4" x2="583.6" y2="172.8" stroke-opacity="0.098" stroke-width="1"/>
    <line x1="511.1" y1="223.4" x2="611.7" y2="343.8" stroke-opacity="0.049" stroke-width="1"/>
    <line x1="511.1" y1="223.4" x2="556.2" y2="356.6" stroke-opacity="0.061" stroke-width="1"/>
    <line x1="511.1" y1="223.4" x2="463.9" y2="273.7" stroke-opacity="0.111" stroke-width="1"/>
    <line x1="511.1" y1="223.4" x2="657.5" y2="170.8" stroke-opacity="0.050" stroke-width="1"/>
    <line x1="438.2" y1="37.7" x2="362.5" y2="179.9" stroke-opacity="0.046" stroke-width="1"/>
    <line x1="47.7" y1="123.6" x2="18.1" y2="277.0" stroke-opacity="0.050" stroke-width="1"/>
    <line x1="47.7" y1="123.6" x2="134.4" y2="70.3" stroke-opacity="0.088" stroke-width="1"/>
    <line x1="544.3" y1="256.6" x2="583.6" y2="172.8" stroke-opacity="0.095" stroke-width="1"/>
    <line x1="544.3" y1="256.6" x2="611.7" y2="343.8" stroke-opacity="0.082" stroke-width="1"/>
    <line x1="544.3" y1="256.6" x2="556.2" y2="356.6" stroke-opacity="0.089" stroke-width="1"/>
    <line x1="544.3" y1="256.6" x2="463.9" y2="273.7" stroke-opacity="0.102" stroke-width="1"/>
    <line x1="544.3" y1="256.6" x2="657.5" y2="170.8" stroke-opacity="0.060" stroke-width="1"/>
    <line x1="251.3" y1="351.3" x2="195.3" y2="344.7" stroke-opacity="0.120" stroke-width="1"/>
    <line x1="251.3" y1="351.3" x2="334.5" y2="454.3" stroke-opacity="0.067" stroke-width="1"/>
    <line x1="251.3" y1="351.3" x2="121.6" y2="293.4" stroke-opacity="0.060" stroke-width="1"/>
    <line x1="251.3" y1="351.3" x2="379.3" y2="398.5" stroke-opacity="0.064" stroke-width="1"/>
    <line x1="251.3" y1="351.3" x2="308.6" y2="401.2" stroke-opacity="0.106" stroke-width="1"/>
    <line x1="362.5" y1="179.9" x2="463.9" y2="273.7" stroke-opacity="0.062" stroke-width="1"/>
    <line x1="635.5" y1="419.4" x2="611.7" y2="343.8" stroke-opacity="0.104" stroke-width="1"/>
    <line x1="635.5" y1="419.4" x2="556.2" y2="356.6" stroke-opacity="0.089" stroke-width="1"/>
    <line x1="635.5" y1="419.4" x2="672.0" y2="566.8" stroke-opacity="0.053" stroke-width="1"/>
    <line x1="195.3" y1="344.7" x2="121.6" y2="293.4" stroke-opacity="0.097" stroke-width="1"/>
    <line x1="195.3" y1="344.7" x2="48.5" y2="420.9" stroke-opacity="0.043" stroke-width="1"/>
    <line x1="195.3" y1="344.7" x2="308.6" y2="401.2" stroke-opacity="0.071" stroke-width="1"/>
    <line x1="420.2" y1="525.1" x2="334.5" y2="454.3" stroke-opacity="0.082" stroke-width="1"/>
    <line x1="420.2" y1="525.1" x2="379.3" y2="398.5" stroke-opacity="0.066" stroke-width="1"/>
    <line x1="420.2" y1="525.1" x2="517.7" y2="595.9" stroke-opacity="0.075" stroke-width="1"/>
    <line x1="420.2" y1="525.1" x2="308.6" y2="401.2" stroke-opacity="0.042" stroke-width="1"/>
    <line x1="583.6" y1="172.8" x2="700.4" y2="188.2" stroke-opacity="0.077" stroke-width="1"/>
    <line x1="583.6" y1="172.8" x2="463.9" y2="273.7" stroke-opacity="0.049" stroke-width="1"/>
    <line x1="583.6" y1="172.8" x2="657.5" y2="170.8" stroke-opacity="0.108" stroke-width="1"/>
    <line x1="784.1" y1="70.8" x2="700.4" y2="188.2" stroke-opacity="0.058" stroke-width="1"/>
    <line x1="784.1" y1="70.8" x2="657.5" y2="170.8" stroke-opacity="0.046" stroke-width="1"/>
    <line x1="334.5" y1="454.3" x2="379.3" y2="398.5" stroke-opacity="0.110" stroke-width="1"/>
    <line x1="334.5" y1="454.3" x2="308.6" y2="401.2" stroke-opacity="0.118" stroke-width="1"/>
    <line x1="121.6" y1="293.4" x2="31.4" y2="400.9" stroke-opacity="0.061" stroke-width="1"/>
    <line x1="121.6" y1="293.4" x2="48.5" y2="420.9" stroke-opacity="0.056" stroke-width="1"/>
    <line x1="121.6" y1="293.4" x2="18.1" y2="277.0" stroke-opacity="0.086" stroke-width="1"/>
    <line x1="31.4" y1="400.9" x2="48.5" y2="420.9" stroke-opacity="0.141" stroke-width="1"/>
    <line x1="31.4" y1="400.9" x2="18.1" y2="277.0" stroke-opacity="0.072" stroke-width="1"/>
    <line x1="31.4" y1="400.9" x2="47.2" y2="460.9" stroke-opacity="0.116" stroke-width="1"/>
    <line x1="611.7" y1="343.8" x2="556.2" y2="356.6" stroke-opacity="0.120" stroke-width="1"/>
    <line x1="611.7" y1="343.8" x2="463.9" y2="273.7" stroke-opacity="0.045" stroke-width="1"/>
    <line x1="700.4" y1="188.2" x2="657.5" y2="170.8" stroke-opacity="0.127" stroke-width="1"/>
    <line x1="556.2" y1="356.6" x2="463.9" y2="273.7" stroke-opacity="0.072" stroke-width="1"/>
    <line x1="463.9" y1="273.7" x2="379.3" y2="398.5" stroke-opacity="0.054" stroke-width="1"/>
    <line x1="672.0" y1="566.8" x2="517.7" y2="595.9" stroke-opacity="0.049" stroke-width="1"/>
    <line x1="379.3" y1="398.5" x2="308.6" y2="401.2" stroke-opacity="0.110" stroke-width="1"/>
    <line x1="48.5" y1="420.9" x2="18.1" y2="277.0" stroke-opacity="0.056" stroke-width="1"/>
    <line x1="48.5" y1="420.9" x2="47.2" y2="460.9" stroke-opacity="0.132" stroke-width="1"/>
  </g>
  <g>
    <circle cx="259.1" cy="90.5" r="3.50" fill="#177A4E" fill-opacity="0.587"/>
    <circle cx="520.7" cy="43.5" r="2.13" fill="#1C537E" fill-opacity="0.385"/>
    <circle cx="428.7" cy="219.4" r="3.41" fill="#1C537E" fill-opacity="0.496"/>
    <circle cx="46.4" cy="304.5" r="2.45" fill="#1C537E" fill-opacity="0.375"/>
    <circle cx="30.0" cy="260.2" r="3.41" fill="#1C537E" fill-opacity="0.537"/>
    <circle cx="55.9" cy="54.4" r="3.35" fill="#177A4E" fill-opacity="0.531"/>
    <circle cx="339.6" cy="496.1" r="2.78" fill="#1C537E" fill-opacity="0.427"/>
    <circle cx="99.0" cy="133.9" r="2.01" fill="#1C537E" fill-opacity="0.376"/>
    <circle cx="501.9" cy="568.6" r="2.91" fill="#1C537E" fill-opacity="0.536"/>
    <circle cx="461.7" cy="238.0" r="2.82" fill="#1C537E" fill-opacity="0.435"/>
    <circle cx="781.0" cy="27.9" r="2.09" fill="#1C537E" fill-opacity="0.520"/>
    <circle cx="686.8" cy="173.8" r="3.40" fill="#1C537E" fill-opacity="0.489"/>
    <circle cx="115.4" cy="70.7" r="2.64" fill="#1C537E" fill-opacity="0.281"/>
    <circle cx="246.8" cy="489.7" r="2.10" fill="#1C537E" fill-opacity="0.270"/>
    <circle cx="144.6" cy="349.0" r="3.32" fill="#177A4E" fill-opacity="0.569"/>
    <circle cx="511.1" cy="223.4" r="3.00" fill="#177A4E" fill-opacity="0.503"/>
    <circle cx="438.2" cy="37.7" r="3.73" fill="#177A4E" fill-opacity="0.459"/>
    <circle cx="47.7" cy="123.6" r="2.98" fill="#1C537E" fill-opacity="0.295"/>
    <circle cx="544.3" cy="256.6" r="2.56" fill="#1C537E" fill-opacity="0.359"/>
    <circle cx="251.3" cy="351.3" r="4.70" fill="#177A4E" fill-opacity="0.798"/>
    <circle cx="362.5" cy="179.9" r="2.77" fill="#1C537E" fill-opacity="0.276"/>
    <circle cx="635.5" cy="419.4" r="3.69" fill="#177A4E" fill-opacity="0.543"/>
    <circle cx="195.3" cy="344.7" r="2.26" fill="#1C537E" fill-opacity="0.257"/>
    <circle cx="420.2" cy="525.1" r="2.85" fill="#1C537E" fill-opacity="0.294"/>
    <circle cx="583.6" cy="172.8" r="2.04" fill="#1C537E" fill-opacity="0.408"/>
    <circle cx="784.1" cy="70.8" r="3.38" fill="#1C537E" fill-opacity="0.459"/>
    <circle cx="334.5" cy="454.3" r="2.59" fill="#1C537E" fill-opacity="0.300"/>
    <circle cx="121.6" cy="293.4" r="2.85" fill="#1C537E" fill-opacity="0.484"/>
    <circle cx="31.4" cy="400.9" r="2.36" fill="#1C537E" fill-opacity="0.493"/>
    <circle cx="611.7" cy="343.8" r="3.36" fill="#1C537E" fill-opacity="0.492"/>
    <circle cx="700.4" cy="188.2" r="3.18" fill="#1C537E" fill-opacity="0.318"/>
    <circle cx="556.2" cy="356.6" r="2.57" fill="#1C537E" fill-opacity="0.259"/>
    <circle cx="463.9" cy="273.7" r="3.56" fill="#177A4E" fill-opacity="0.541"/>
    <circle cx="672.0" cy="566.8" r="3.53" fill="#1C537E" fill-opacity="0.384"/>
    <circle cx="379.3" cy="398.5" r="3.58" fill="#1C537E" fill-opacity="0.537"/>
    <circle cx="48.5" cy="420.9" r="2.35" fill="#1C537E" fill-opacity="0.318"/>
    <circle cx="517.7" cy="595.9" r="3.41" fill="#177A4E" fill-opacity="0.668"/>
    <circle cx="657.5" cy="170.8" r="3.34" fill="#1C537E" fill-opacity="0.394"/>
    <circle cx="308.6" cy="401.2" r="3.28" fill="#1C537E" fill-opacity="0.275"/>
    <circle cx="18.1" cy="277.0" r="3.46" fill="#1C537E" fill-opacity="0.485"/>
    <circle cx="134.4" cy="70.3" r="2.76" fill="#1C537E" fill-opacity="0.304"/>
    <circle cx="47.2" cy="460.9" r="2.53" fill="#1C537E" fill-opacity="0.490"/>
  </g>
</svg>