<svg xmlns="http://www.w3.org/2000/svg" width="1600" height="900" viewBox="0 0 1600 900">
  <rect width="1600" height="900" fill="#0E2438"/>
  <g stroke="#FFFFFF" fill="none">
    <line x1="916.4" y1="662.8" x2="895.0" y2="584.9" stroke-opacity="0.114" stroke-width="1"/>
    <line x1="916.4" y1="662.8" x2="966.0" y2="726.4" stroke-opacity="0.114" stroke-width="1"/>
    <line x1="916.4" y1="662.8" x2="989.6" y2="775.5" stroke-opacity="0.083" stroke-width="1"/>
    <line x1="916.4" y1="662.8" x2="1024.0" y2="501.3" stroke-opacity="0.049" stroke-width="1"/>
    <line x1="916.4" y1="662.8" x2="953.2" y2="785.2" stroke-opacity="0.087" stroke-width="1"/>
    <line x1="916.4" y1="662.8" x2="782.5" y2="568.0" stroke-opacity="0.066" stroke-width="1"/>
    <line x1="916.4" y1="662.8" x2="747.2" y2="656.2" stroke-opacity="0.063" stroke-width="1"/>
    <line x1="916.4" y1="662.8" x2="1018.6" y2="775.5" stroke-opacity="0.073" stroke-width="1"/>
    <line x1="916.4" y1="662.8" x2="926.7" y2="488.0" stroke-opacity="0.060" stroke-width="1"/>
    <line x1="916.4" y1="662.8" x2="953.4" y2="839.9" stroke-opacity="0.057" stroke-width="1"/>
    <line x1="916.4" y1="662.8" x2="858.8" y2="750.4" stroke-opacity="0.100" stroke-width="1"/>
    <line x1="916.4" y1="662.8" x2="781.7" y2="814.8" stroke-opacity="0.044" stroke-width="1"/>
    <line x1="916.4" y1="662.8" x2="723.1" y2="694.0" stroke-opacity="0.048" stroke-width="1"/>
    <line x1="1091.3" y1="26.8" x2="1295.1" y2="5.8" stroke-opacity="0.043" stroke-width="1"/>
    <line x1="1091.3" y1="26.8" x2="974.7" y2="71.8" stroke-opacity="0.089" stroke-width="1"/>
    <line x1="1091.3" y1="26.8" x2="974.6" y2="154.0" stroke-opacity="0.061" stroke-width="1"/>
    <line x1="1091.3" y1="26.8" x2="1072.9" y2="52.8" stroke-opacity="0.142" stroke-width="1"/>
    <line x1="1091.3" y1="26.8" x2="1046.4" y2="7.0" stroke-opacity="0.132" stroke-width="1"/>
    <line x1="895.0" y1="584.9" x2="966.0" y2="726.4" stroke-opacity="0.070" stroke-width="1"/>
    <line x1="895.0" y1="584.9" x2="1024.0" y2="501.3" stroke-opacity="0.072" stroke-width="1"/>
    <line x1="895.0" y1="584.9" x2="953.2" y2="785.2" stroke-opacity="0.041" stroke-width="1"/>
    <line x1="895.0" y1="584.9" x2="782.5" y2="568.0" stroke-opacity="0.095" stroke-width="1"/>
    <line x1="895.0" y1="584.9" x2="913.7" y2="425.4" stroke-opacity="0.068" stroke-width="1"/>
    <line x1="895.0" y1="584.9" x2="747.2" y2="656.2" stroke-opacity="0.066" stroke-width="1"/>
    <line x1="895.0" y1="584.9" x2="926.7" y2="488.0" stroke-opacity="0.102" stroke-width="1"/>
    <line x1="895.0" y1="584.9" x2="858.8" y2="750.4" stroke-opacity="0.063" stroke-width="1"/>
    <line x1="895.0" y1="584.9" x2="723.1" y2="694.0" stroke-opacity="0.044" stroke-width="1"/>
    <line x1="871.9" y1="198.4" x2="974.7" y2="71.8" stroke-opacity="0.067" stroke-width="1"/>
    <line x1="871.9" y1="198.4" x2="974.6" y2="154.0" stroke-opacity="0.096" stroke-width="1"/>
    <line x1="871.9" y1="198.4" x2="748.2" y2="283.9" stroke-opacity="0.074" stroke-width="1"/>
    <line x1="871.9" y1="198.4" x2="953.1" y2="222.0" stroke-opacity="0.112" stroke-width="1"/>
    <line x1="871.9" y1="198.4" x2="898.2" y2="236.5" stroke-opacity="0.134" stroke-width="1"/>
    <line x1="871.9" y1="198.4" x2="859.2" y2="240.1" stroke-opacity="0.135" stroke-width="1"/>
    <line x1="871.9" y1="198.4" x2="917.7" y2="304.3" stroke-opacity="0.094" stroke-width="1"/>
    <line x1="1295.1" y1="5.8" x2="1362.3" y2="181.0" stroke-opacity="0.053" stroke-width="1"/>
    <line x1="1562.3" y1="302.9" x2="1402.2" y2="283.2" stroke-opacity="0.068" stroke-width="1"/>
    <line x1="1562.3" y1="302.9" x2="1597.8" y2="458.6" stroke-opacity="0.069" stroke-width="1"/>
    <line x1="1562.3" y1="302.9" x2="1596.6" y2="476.2" stroke-opacity="0.059" stroke-width="1"/>
    <line x1="1562.3" y1="302.9" x2="1410.0" y2="409.5" stroke-opacity="0.054" stroke-width="1"/>
    <line x1="1562.3" y1="302.9" x2="1470.4" y2="141.7" stroke-opacity="0.054" stroke-width="1"/>
    <line x1="1562.3" y1="302.9" x2="1542.5" y2="183.8" stroke-opacity="0.091" stroke-width="1"/>
    <line x1="148.4" y1="87.0" x2="113.4" y2="214.2" stroke-opacity="0.085" stroke-width="1"/>
    <line x1="148.4" y1="87.0" x2="342.8" y2="119.1" stroke-opacity="0.047" stroke-width="1"/>
    <line x1="966.0" y1="726.4" x2="989.6" y2="775.5" stroke-opacity="0.129" stroke-width="1"/>
    <line x1="966.0" y1="726.4" x2="953.2" y2="785.2" stroke-opacity="0.126" stroke-width="1"/>
    <line x1="966.0" y1="726.4" x2="1018.6" y2="775.5" stroke-opacity="0.119" stroke-width="1"/>
    <line x1="966.0" y1="726.4" x2="981.1" y2="871.8" stroke-opacity="0.076" stroke-width="1"/>
    <line x1="966.0" y1="726.4" x2="953.4" y2="839.9" stroke-opacity="0.095" stroke-width="1"/>
    <line x1="966.0" y1="726.4" x2="858.8" y2="750.4" stroke-opacity="0.097" stroke-width="1"/>
    <line x1="966.0" y1="726.4" x2="781.7" y2="814.8" stroke-opacity="0.043" stroke-width="1"/>
    <line x1="1205.8" y1="746.5" x2="1272.2" y2="712.9" stroke-opacity="0.117" stroke-width="1"/>
    <line x1="1205.8" y1="746.5" x2="1354.2" y2="613.5" stroke-opacity="0.046" stroke-width="1"/>
    <line x1="1205.8" y1="746.5" x2="1389.3" y2="689.3" stroke-opacity="0.050" stroke-width="1"/>
    <line x1="1205.8" y1="746.5" x2="1018.6" y2="775.5" stroke-opacity="0.052" stroke-width="1"/>
    <line x1="1205.8" y1="746.5" x2="1243.6" y2="607.7" stroke-opacity="0.078" stroke-width="1"/>
    <line x1="1205.8" y1="746.5" x2="1123.3" y2="898.6" stroke-opacity="0.061" stroke-width="1"/>
    <line x1="989.6" y1="775.5" x2="953.2" y2="785.2" stroke-opacity="0.138" stroke-width="1"/>
    <line x1="989.6" y1="775.5" x2="1018.6" y2="775.5" stroke-opacity="0.143" stroke-width="1"/>
    <line x1="989.6" y1="775.5" x2="981.1" y2="871.8" stroke-opacity="0.105" stroke-width="1"/>
    <line x1="989.6" y1="775.5" x2="1123.3" y2="898.6" stroke-opacity="0.056" stroke-width="1"/>
    <line x1="989.6" y1="775.5" x2="953.4" y2="839.9" stroke-opacity="0.118" stroke-width="1"/>
    <line x1="989.6" y1="775.5" x2="858.8" y2="750.4" stroke-opacity="0.084" stroke-width="1"/>
    <line x1="974.7" y1="71.8" x2="974.6" y2="154.0" stroke-opacity="0.113" stroke-width="1"/>
    <line x1="974.7" y1="71.8" x2="953.1" y2="222.0" stroke-opacity="0.073" stroke-width="1"/>
    <line x1="974.7" y1="71.8" x2="898.2" y2="236.5" stroke-opacity="0.056" stroke-width="1"/>
    <line x1="974.7" y1="71.8" x2="859.2" y2="240.1" stroke-opacity="0.043" stroke-width="1"/>
    <line x1="974.7" y1="71.8" x2="1072.9" y2="52.8" stroke-opacity="0.103" stroke-width="1"/>
    <line x1="974.7" y1="71.8" x2="1046.4" y2="7.0" stroke-opacity="0.105" stroke-width="1"/>
    <line x1="1279.4" y1="328.3" x2="1402.2" y2="283.2" stroke-opacity="0.085" stroke-width="1"/>
    <line x1="1279.4" y1="328.3" x2="1405.2" y2="477.3" stroke-opacity="0.049" stroke-width="1"/>
    <line x1="1279.4" y1="328.3" x2="1362.3" y2="181.0" stroke-opacity="0.063" stroke-width="1"/>
    <line x1="1279.4" y1="328.3" x2="1099.3" y2="381.2" stroke-opacity="0.053" stroke-width="1"/>
    <line x1="1279.4" y1="328.3" x2="1091.3" y2="250.7" stroke-opacity="0.044" stroke-width="1"/>
    <line x1="1279.4" y1="328.3" x2="1410.0" y2="409.5" stroke-opacity="0.072" stroke-width="1"/>
    <line x1="1279.4" y1="328.3" x2="1311.1" y2="270.0" stroke-opacity="0.122" stroke-width="1"/>
    <line x1="1279.4" y1="328.3" x2="1206.8" y2="245.1" stroke-opacity="0.097" stroke-width="1"/>
    <line x1="1279.4" y1="328.3" x2="1278.1" y2="237.6" stroke-opacity="0.108" stroke-width="1"/>
    <line x1="1544.3" y1="583.2" x2="1597.8" y2="458.6" stroke-opacity="0.082" stroke-width="1"/>
    <line x1="1544.3" y1="583.2" x2="1596.6" y2="476.2" stroke-opacity="0.092" stroke-width="1"/>
    <line x1="1544.3" y1="583.2" x2="1354.2" y2="613.5" stroke-opacity="0.050" stroke-width="1"/>
    <line x1="1544.3" y1="583.2" x2="1559.4" y2="788.3" stroke-opacity="0.043" stroke-width="1"/>
    <line x1="1544.3" y1="583.2" x2="1523.1" y2="783.5" stroke-opacity="0.045" stroke-width="1"/>
    <line x1="1544.3" y1="583.2" x2="1405.2" y2="477.3" stroke-opacity="0.060" stroke-width="1"/>
    <line x1="1544.3" y1="583.2" x2="1537.6" y2="790.8" stroke-opacity="0.041" stroke-width="1"/>
    <line x1="1544.3" y1="583.2" x2="1389.3" y2="689.3" stroke-opacity="0.053" stroke-width="1"/>
    <line x1="1544.3" y1="583.2" x2="1478.0" y2="495.3" stroke-opacity="0.097" stroke-width="1"/>
    <line x1="974.6" y1="154.0" x2="953.1" y2="222.0" stroke-opacity="0.119" stroke-width="1"/>
    <line x1="974.6" y1="154.0" x2="898.2" y2="236.5" stroke-opacity="0.096" stroke-width="1"/>
    <line x1="974.6" y1="154.0" x2="859.2" y2="240.1" stroke-opacity="0.078" stroke-width="1"/>
    <line x1="974.6" y1="154.0" x2="917.7" y2="304.3" stroke-opacity="0.068" stroke-width="1"/>
    <line x1="974.6" y1="154.0" x2="1091.3" y2="250.7" stroke-opacity="0.073" stroke-width="1"/>
    <line x1="974.6" y1="154.0" x2="1072.9" y2="52.8" stroke-opacity="0.079" stroke-width="1"/>
    <line x1="974.6" y1="154.0" x2="1046.4" y2="7.0" stroke-opacity="0.067" stroke-width="1"/>
    <line x1="261.4" y1="341.5" x2="113.4" y2="214.2" stroke-opacity="0.048" stroke-width="1"/>
    <line x1="1024.0" y1="501.3" x2="913.7" y2="425.4" stroke-opacity="0.083" stroke-width="1"/>
    <line x1="1024.0" y1="501.3" x2="1099.3" y2="381.2" stroke-opacity="0.079" stroke-width="1"/>
    <line x1="1024.0" y1="501.3" x2="926.7" y2="488.0" stroke-opacity="0.104" stroke-width="1"/>
    <line x1="1024.0" y1="501.3" x2="1125.7" y2="550.5" stroke-opacity="0.095" stroke-width="1"/>
    <line x1="748.2" y1="283.9" x2="898.2" y2="236.5" stroke-opacity="0.070" stroke-width="1"/>
    <line x1="748.2" y1="283.9" x2="859.2" y2="240.1" stroke-opacity="0.092" stroke-width="1"/>
    <line x1="748.2" y1="283.9" x2="917.7" y2="304.3" stroke-opacity="0.062" stroke-width="1"/>
    <line x1="428.4" y1="189.9" x2="342.8" y2="119.1" stroke-opacity="0.097" stroke-width="1"/>
    <line x1="428.4" y1="189.9" x2="376.3" y2="107.9" stroke-opacity="0.105" stroke-width="1"/>
    <line x1="1402.2" y1="283.2" x2="1405.2" y2="477.3" stroke-opacity="0.049" stroke-width="1"/>
    <line x1="1402.2" y1="283.2" x2="1362.3" y2="181.0" stroke-opacity="0.097" stroke-width="1"/>
    <line x1="1402.2" y1="283.2" x2="1410.0" y2="409.5" stroke-opacity="0.088" stroke-width="1"/>
    <line x1="1402.2" y1="283.2" x2="1470.4" y2="141.7" stroke-opacity="0.070" stroke-width="1"/>
    <line x1="1402.2" y1="283.2" x2="1542.5" y2="183.8" stroke-opacity="0.062" stroke-width="1"/>
    <line x1="1402.2" y1="283.2" x2="1311.1" y2="270.0" stroke-opacity="0.107" stroke-width="1"/>
    <line x1="1402.2" y1="283.2" x2="1206.8" y2="245.1" stroke-opacity="0.046" stroke-width="1"/>
    <line x1="1402.2" y1="283.2" x2="1278.1" y2="237.6" stroke-opacity="0.084" stroke-width="1"/>
    <line x1="953.1" y1="222.0" x2="898.2" y2="236.5" stroke-opacity="0.128" stroke-width="1"/>
    <line x1="953.1" y1="222.0" x2="859.2" y2="240.1" stroke-opacity="0.105" stroke-width="1"/>
    <line x1="953.1" y1="222.0" x2="917.7" y2="304.3" stroke-opacity="0.109" stroke-width="1"/>
    <line x1="953.1" y1="222.0" x2="913.7" y2="425.4" stroke-opacity="0.042" stroke-width="1"/>
    <line x1="953.1" y1="222.0" x2="1091.3" y2="250.7" stroke-opacity="0.079" stroke-width="1"/>
    <line x1="953.1" y1="222.0" x2="1072.9" y2="52.8" stroke-opacity="0.042" stroke-width="1"/>
    <line x1="898.2" y1="236.5" x2="859.2" y2="240.1" stroke-opacity="0.138" stroke-width="1"/>
    <line x1="898.2" y1="236.5" x2="917.7" y2="304.3" stroke-opacity="0.120" stroke-width="1"/>
    <line x1="898.2" y1="236.5" x2="913.7" y2="425.4" stroke-opacity="0.052" stroke-width="1"/>
    <line x1="898.2" y1="236.5" x2="1091.3" y2="250.7" stroke-opacity="0.049" stroke-width="1"/>
    <line x1="1597.8" y1="458.6" x2="1596.6" y2="476.2" stroke-opacity="0.150" stroke-width="1"/>
    <line x1="1597.8" y1="458.6" x2="1405.2" y2="477.3" stroke-opacity="0.049" stroke-width="1"/>
    <line x1="1597.8" y1="458.6" x2="1478.0" y2="495.3" stroke-opacity="0.088" stroke-width="1"/>
    <line x1="1597.8" y1="458.6" x2="1410.0" y2="409.5" stroke-opacity="0.049" stroke-width="1"/>
    <line x1="1272.2" y1="712.9" x2="1354.2" y2="613.5" stroke-opacity="0.086" stroke-width="1"/>
    <line x1="1272.2" y1="712.9" x2="1389.3" y2="689.3" stroke-opacity="0.092" stroke-width="1"/>
    <line x1="1272.2" y1="712.9" x2="1243.6" y2="607.7" stroke-opacity="0.098" stroke-width="1"/>
    <line x1="1596.6" y1="476.2" x2="1405.2" y2="477.3" stroke-opacity="0.051" stroke-width="1"/>
    <line x1="1596.6" y1="476.2" x2="1478.0" y2="495.3" stroke-opacity="0.091" stroke-width="1"/>
    <line x1="1596.6" y1="476.2" x2="1410.0" y2="409.5" stroke-opacity="0.047" stroke-width="1"/>
    <line x1="1354.2" y1="613.5" x2="1405.2" y2="477.3" stroke-opacity="0.077" stroke-width="1"/>
    <line x1="1354.2" y1="613.5" x2="1389.3" y2="689.3" stroke-opacity="0.112" stroke-width="1"/>
    <line x1="1354.2" y1="613.5" x2="1478.0" y2="495.3" stroke-opacity="0.062" stroke-width="1"/>
    <line x1="1354.2" y1="613.5" x2="1243.6" y2="607.7" stroke-opacity="0.097" stroke-width="1"/>
    <line x1="859.2" y1="240.1" x2="917.7" y2="304.3" stroke-opacity="0.110" stroke-width="1"/>
    <line x1="859.2" y1="240.1" x2="913.7" y2="425.4" stroke-opacity="0.050" stroke-width="1"/>
    <line x1="1559.4" y1="788.3" x2="1523.1" y2="783.5" stroke-opacity="0.139" stroke-width="1"/>
    <line x1="1559.4" y1="788.3" x2="1537.6" y2="790.8" stroke-opacity="0.147" stroke-width="1"/>
    <line x1="1559.4" y1="788.3" x2="1492.6" y2="852.3" stroke-opacity="0.107" stroke-width="1"/>
    <line x1="1559.4" y1="788.3" x2="1389.3" y2="689.3" stroke-opacity="0.048" stroke-width="1"/>
    <line x1="1559.4" y1="788.3" x2="1550.4" y2="833.7" stroke-opacity="0.134" stroke-width="1"/>
    <line x1="1523.1" y1="783.5" x2="1537.6" y2="790.8" stroke-opacity="0.151" stroke-width="1"/>
    <line x1="1523.1" y1="783.5" x2="1492.6" y2="852.3" stroke-opacity="0.117" stroke-width="1"/>
    <line x1="1523.1" y1="783.5" x2="1389.3" y2="689.3" stroke-opacity="0.066" stroke-width="1"/>
    <line x1="1523.1" y1="783.5" x2="1550.4" y2="833.7" stroke-opacity="0.127" stroke-width="1"/>
    <line x1="477.5" y1="575.1" x2="393.9" y2="535.1" stroke-opacity="0.107" stroke-width="1"/>
    <line x1="477.5" y1="575.1" x2="479.0" y2="597.0" stroke-opacity="0.147" stroke-width="1"/>
    <line x1="1405.2" y1="477.3" x2="1478.0" y2="495.3" stroke-opacity="0.117" stroke-width="1"/>
    <line x1="1405.2" y1="477.3" x2="1410.0" y2="409.5" stroke-opacity="0.121" stroke-width="1"/>
    <line x1="1405.2" y1="477.3" x2="1243.6" y2="607.7" stroke-opacity="0.041" stroke-width="1"/>
    <line x1="1537.6" y1="790.8" x2="1492.6" y2="852.3" stroke-opacity="0.117" stroke-width="1"/>
    <line x1="1537.6" y1="790.8" x2="1389.3" y2="689.3" stroke-opacity="0.057" stroke-width="1"/>
    <line x1="1537.6" y1="790.8" x2="1550.4" y2="833.7" stroke-opacity="0.134" stroke-width="1"/>
    <line x1="1492.6" y1="852.3" x2="1389.3" y2="689.3" stroke-opacity="0.050" stroke-width="1"/>
    <line x1="1492.6" y1="852.3" x2="1550.4" y2="833.7" stroke-opacity="0.125" stroke-width="1"/>
    <line x1="1389.3" y1="689.3" x2="1243.6" y2="607.7" stroke-opacity="0.065" stroke-width="1"/>
    <line x1="953.2" y1="785.2" x2="1018.6" y2="775.5" stroke-opacity="0.122" stroke-width="1"/>
    <line x1="953.2" y1="785.2" x2="981.1" y2="871.8" stroke-opacity="0.108" stroke-width="1"/>
    <line x1="953.2" y1="785.2" x2="1123.3" y2="898.6" stroke-opacity="0.043" stroke-width="1"/>
    <line x1="953.2" y1="785.2" x2="953.4" y2="839.9" stroke-opacity="0.129" stroke-width="1"/>
    <line x1="953.2" y1="785.2" x2="858.8" y2="750.4" stroke-opacity="0.102" stroke-width="1"/>
    <line x1="953.2" y1="785.2" x2="781.7" y2="814.8" stroke-opacity="0.060" stroke-width="1"/>
    <line x1="1362.3" y1="181.0" x2="1470.4" y2="141.7" stroke-opacity="0.094" stroke-width="1"/>
    <line x1="1362.3" y1="181.0" x2="1542.5" y2="183.8" stroke-opacity="0.057" stroke-width="1"/>
    <line x1="1362.3" y1="181.0" x2="1311.1" y2="270.0" stroke-opacity="0.101" stroke-width="1"/>
    <line x1="1362.3" y1="181.0" x2="1206.8" y2="245.1" stroke-opacity="0.064" stroke-width="1"/>
    <line x1="1362.3" y1="181.0" x2="1278.1" y2="237.6" stroke-opacity="0.102" stroke-width="1"/>
    <line x1="498.7" y1="895.6" x2="366.3" y2="814.9" stroke-opacity="0.071" stroke-width="1"/>
    <line x1="498.7" y1="895.6" x2="676.8" y2="861.6" stroke-opacity="0.056" stroke-width="1"/>
    <line x1="917.7" y1="304.3" x2="913.7" y2="425.4" stroke-opacity="0.091" stroke-width="1"/>
    <line x1="917.7" y1="304.3" x2="1099.3" y2="381.2" stroke-opacity="0.047" stroke-width="1"/>
    <line x1="917.7" y1="304.3" x2="1091.3" y2="250.7" stroke-opacity="0.056" stroke-width="1"/>
    <line x1="917.7" y1="304.3" x2="926.7" y2="488.0" stroke-opacity="0.055" stroke-width="1"/>
    <line x1="782.5" y1="568.0" x2="913.7" y2="425.4" stroke-opacity="0.049" stroke-width="1"/>
    <line x1="782.5" y1="568.0" x2="747.2" y2="656.2" stroke-opacity="0.106" stroke-width="1"/>
    <line x1="782.5" y1="568.0" x2="926.7" y2="488.0" stroke-opacity="0.066" stroke-width="1"/>
    <line x1="782.5" y1="568.0" x2="858.8" y2="750.4" stroke-opacity="0.047" stroke-width="1"/>
    <line x1="782.5" y1="568.0" x2="723.1" y2="694.0" stroke-opacity="0.080" stroke-width="1"/>
    <line x1="342.8" y1="119.1" x2="376.3" y2="107.9" stroke-opacity="0.140" stroke-width="1"/>
    <line x1="913.7" y1="425.4" x2="1099.3" y2="381.2" stroke-opacity="0.051" stroke-width="1"/>
    <line x1="913.7" y1="425.4" x2="926.7" y2="488.0" stroke-opacity="0.123" stroke-width="1"/>
    <line x1="1099.3" y1="381.2" x2="1091.3" y2="250.7" stroke-opacity="0.085" stroke-width="1"/>
    <line x1="1099.3" y1="381.2" x2="926.7" y2="488.0" stroke-opacity="0.044" stroke-width="1"/>
    <line x1="1099.3" y1="381.2" x2="1125.7" y2="550.5" stroke-opacity="0.062" stroke-width="1"/>
    <line x1="1099.3" y1="381.2" x2="1206.8" y2="245.1" stroke-opacity="0.061" stroke-width="1"/>
    <line x1="747.2" y1="656.2" x2="858.8" y2="750.4" stroke-opacity="0.077" stroke-width="1"/>
    <line x1="747.2" y1="656.2" x2="781.7" y2="814.8" stroke-opacity="0.067" stroke-width="1"/>
    <line x1="747.2" y1="656.2" x2="723.1" y2="694.0" stroke-opacity="0.134" stroke-width="1"/>
    <line x1="1018.6" y1="775.5" x2="981.1" y2="871.8" stroke-opacity="0.101" stroke-width="1"/>
    <line x1="1018.6" y1="775.5" x2="1123.3" y2="898.6" stroke-opacity="0.068" stroke-width="1"/>
    <line x1="1018.6" y1="775.5" x2="953.4" y2="839.9" stroke-opacity="0.108" stroke-width="1"/>
    <line x1="1018.6" y1="775.5" x2="858.8" y2="750.4" stroke-opacity="0.068" stroke-width="1"/>
    <line x1="1091.3" y1="250.7" x2="1072.9" y2="52.8" stroke-opacity="0.046" stroke-width="1"/>
    <line x1="1091.3" y1="250.7" x2="1206.8" y2="245.1" stroke-opacity="0.094" stroke-width="1"/>
    <line x1="1091.3" y1="250.7" x2="1278.1" y2="237.6" stroke-opacity="0.053" stroke-width="1"/>
    <line x1="1478.0" y1="495.3" x2="1410.0" y2="409.5" stroke-opacity="0.097" stroke-width="1"/>
    <line x1="1072.9" y1="52.8" x2="1046.4" y2="7.0" stroke-opacity="0.130" stroke-width="1"/>
    <line x1="1410.0" y1="409.5" x2="1311.1" y2="270.0" stroke-opacity="0.062" stroke-width="1"/>
    <line x1="676.8" y1="861.6" x2="781.7" y2="814.8" stroke-opacity="0.094" stroke-width="1"/>
    <line x1="676.8" y1="861.6" x2="723.1" y2="694.0" stroke-opacity="0.061" stroke-width="1"/>
    <line x1="981.1" y1="871.8" x2="1123.3" y2="898.6" stroke-opacity="0.077" stroke-width="1"/>
    <line x1="981.1" y1="871.8" x2="953.4" y2="839.9" stroke-opacity="0.136" stroke-width="1"/>
    <line x1="981.1" y1="871.8" x2="858.8" y2="750.4" stroke-opacity="0.062" stroke-width="1"/>
    <line x1="981.1" y1="871.8" x2="781.7" y2="814.8" stroke-opacity="0.041" stroke-width="1"/>
    <line x1="926.7" y1="488.0" x2="1125.7" y2="550.5" stroke-opacity="0.041" stroke-width="1"/>
    <line x1="1470.4" y1="141.7" x2="1542.5" y2="183.8" stroke-opacity="0.112" stroke-width="1"/>
    <line x1="1470.4" y1="141.7" x2="1311.1" y2="270.0" stroke-opacity="0.043" stroke-width="1"/>
    <line x1="1243.6" y1="607.7" x2="1125.7" y2="550.5" stroke-opacity="0.085" stroke-width="1"/>
    <line x1="393.9" y1="535.1" x2="479.0" y2="597.0" stroke-opacity="0.100" stroke-width="1"/>
    <line x1="1311.1" y1="270.0" x2="1206.8" y2="245.1" stroke-opacity="0.099" stroke-width="1"/>
    <line x1="1311.1" y1="270.0" x2="1278.1" y2="237.6" stroke-opacity="0.134" stroke-width="1"/>
    <line x1="1123.3" y1="898.6" x2="953.4" y2="839.9" stroke-opacity="0.057" stroke-width="1"/>
    <line x1="953.4" y1="839.9" x2="858.8" y2="750.4" stroke-opacity="0.086" stroke-width="1"/>
    <line x1="953.4" y1="839.9" x2="781.7" y2="814.8" stroke-opacity="0.061" stroke-width="1"/>
    <line x1="858.8" y1="750.4" x2="781.7" y2="814.8" stroke-opacity="0.103" stroke-width="1"/>
    <line x1="858.8" y1="750.4" x2="723.1" y2="694.0" stroke-opacity="0.076" stroke-width="1"/>
    <line x1="1206.8" y1="245.1" x2="1278.1" y2="237.6" stroke-opacity="0.119" stroke-width="1"/>
    <line x1="781.7" y1="814.8" x2="723.1" y2="694.0" stroke-opacity="0.083" stroke-width="1"/>
  </g>
  <g>
    <circle cx="916.4" cy="662.8" r="2.42" fill="#FFFFFF" fill-opacity="0.472"/>
    <circle cx="1091.3" cy="26.8" r="2.68" fill="#FFFFFF" fill-opacity="0.253"/>
    <circle cx="895.0" cy="584.9" r="4.77" fill="#177A4E" fill-opacity="0.766"/>
    <circle cx="871.9" cy="198.4" r="3.34" fill="#FFFFFF" fill-opacity="0.425"/>
    <circle cx="1295.1" cy="5.8" r="3.25" fill="#177A4E" fill-opacity="0.558"/>
    <circle cx="1562.3" cy="302.9" r="3.27" fill="#FFFFFF" fill-opacity="0.508"/>
    <circle cx="148.4" cy="87.0" r="2.34" fill="#FFFFFF" fill-opacity="0.325"/>
    <circle cx="966.0" cy="726.4" r="4.56" fill="#177A4E" fill-opacity="0.759"/>
    <circle cx="1205.8" cy="746.5" r="2.99" fill="#FFFFFF" fill-opacity="0.296"/>
    <circle cx="989.6" cy="775.5" r="3.38" fill="#FFFFFF" fill-opacity="0.543"/>
    <circle cx="974.7" cy="71.8" r="3.41" fill="#FFFFFF" fill-opacity="0.257"/>
    <circle cx="1279.4" cy="328.3" r="2.53" fill="#FFFFFF" fill-opacity="0.529"/>
    <circle cx="1544.3" cy="583.2" r="3.38" fill="#FFFFFF" fill-opacity="0.493"/>
    <circle cx="974.6" cy="154.0" r="3.26" fill="#FFFFFF" fill-opacity="0.282"/>
    <circle cx="261.4" cy="341.5" r="3.37" fill="#FFFFFF" fill-opacity="0.317"/>
    <circle cx="1024.0" cy="501.3" r="2.74" fill="#FFFFFF" fill-opacity="0.342"/>
    <circle cx="748.2" cy="283.9" r="2.36" fill="#FFFFFF" fill-opacity="0.257"/>
    <circle cx="428.4" cy="189.9" r="2.53" fill="#FFFFFF" fill-opacity="0.509"/>
    <circle cx="1402.2" cy="283.2" r="2.45" fill="#FFFFFF" fill-opacity="0.442"/>
    <circle cx="953.1" cy="222.0" r="3.57" fill="#FFFFFF" fill-opacity="0.411"/>
    <circle cx="898.2" cy="236.5" r="2.18" fill="#FFFFFF" fill-opacity="0.541"/>
    <circle cx="1597.8" cy="458.6" r="3.54" fill="#FFFFFF" fill-opacity="0.330"/>
    <circle cx="1272.2" cy="712.9" r="3.87" fill="#177A4E" fill-opacity="0.705"/>
    <circle cx="1596.6" cy="476.2" r="2.97" fill="#FFFFFF" fill-opacity="0.403"/>
    <circle cx="1354.2" cy="613.5" r="2.92" fill="#FFFFFF" fill-opacity="0.326"/>
    <circle cx="859.2" cy="240.1" r="2.00" fill="#FFFFFF" fill-opacity="0.528"/>
    <circle cx="1559.4" cy="788.3" r="3.15" fill="#FFFFFF" fill-opacity="0.473"/>
    <circle cx="1523.1" cy="783.5" r="2.58" fill="#FFFFFF" fill-opacity="0.271"/>
    <circle cx="477.5" cy="575.1" r="2.53" fill="#FFFFFF" fill-opacity="0.344"/>
    <circle cx="1405.2" cy="477.3" r="3.15" fill="#FFFFFF" fill-opacity="0.340"/>
    <circle cx="1537.6" cy="790.8" r="2.65" fill="#FFFFFF" fill-opacity="0.371"/>
    <circle cx="1492.6" cy="852.3" r="2.20" fill="#FFFFFF" fill-opacity="0.376"/>
    <circle cx="1389.3" cy="689.3" r="3.08" fill="#FFFFFF" fill-opacity="0.521"/>
    <circle cx="953.2" cy="785.2" r="2.48" fill="#FFFFFF" fill-opacity="0.414"/>
    <circle cx="1362.3" cy="181.0" r="3.57" fill="#177A4E" fill-opacity="0.600"/>
    <circle cx="498.7" cy="895.6" r="3.05" fill="#FFFFFF" fill-opacity="0.389"/>
    <circle cx="917.7" cy="304.3" r="2.34" fill="#FFFFFF" fill-opacity="0.392"/>
    <circle cx="782.5" cy="568.0" r="3.27" fill="#FFFFFF" fill-opacity="0.301"/>
    <circle cx="366.3" cy="814.9" r="4.03" fill="#177A4E" fill-opacity="0.672"/>
    <circle cx="113.4" cy="214.2" r="3.31" fill="#FFFFFF" fill-opacity="0.475"/>
    <circle cx="342.8" cy="119.1" r="2.36" fill="#FFFFFF" fill-opacity="0.310"/>
    <circle cx="913.7" cy="425.4" r="3.49" fill="#177A4E" fill-opacity="0.616"/>
    <circle cx="1099.3" cy="381.2" r="2.12" fill="#FFFFFF" fill-opacity="0.374"/>
    <circle cx="747.2" cy="656.2" r="2.31" fill="#FFFFFF" fill-opacity="0.459"/>
    <circle cx="1018.6" cy="775.5" r="2.39" fill="#FFFFFF" fill-opacity="0.447"/>
    <circle cx="1091.3" cy="250.7" r="4.50" fill="#177A4E" fill-opacity="0.720"/>
    <circle cx="1478.0" cy="495.3" r="3.85" fill="#177A4E" fill-opacity="0.512"/>
    <circle cx="80.9" cy="899.4" r="2.83" fill="#FFFFFF" fill-opacity="0.265"/>
    <circle cx="1550.4" cy="833.7" r="3.36" fill="#FFFFFF" fill-opacity="0.387"/>
    <circle cx="1072.9" cy="52.8" r="3.07" fill="#FFFFFF" fill-opacity="0.546"/>
    <circle cx="1410.0" cy="409.5" r="3.52" fill="#FFFFFF" fill-opacity="0.517"/>
    <circle cx="676.8" cy="861.6" r="3.15" fill="#FFFFFF" fill-opacity="0.401"/>
    <circle cx="981.1" cy="871.8" r="2.88" fill="#FFFFFF" fill-opacity="0.519"/>
    <circle cx="926.7" cy="488.0" r="2.76" fill="#FFFFFF" fill-opacity="0.328"/>
    <circle cx="1470.4" cy="141.7" r="3.02" fill="#FFFFFF" fill-opacity="0.480"/>
    <circle cx="1243.6" cy="607.7" r="3.00" fill="#FFFFFF" fill-opacity="0.332"/>
    <circle cx="376.3" cy="107.9" r="3.57" fill="#177A4E" fill-opacity="0.545"/>
    <circle cx="393.9" cy="535.1" r="2.86" fill="#FFFFFF" fill-opacity="0.292"/>
    <circle cx="1542.5" cy="183.8" r="3.11" fill="#FFFFFF" fill-opacity="0.462"/>
    <circle cx="1311.1" cy="270.0" r="3.82" fill="#177A4E" fill-opacity="0.640"/>
    <circle cx="1123.3" cy="898.6" r="2.33" fill="#FFFFFF" fill-opacity="0.376"/>
    <circle cx="953.4" cy="839.9" r="2.93" fill="#FFFFFF" fill-opacity="0.459"/>
    <circle cx="858.8" cy="750.4" r="3.22" fill="#FFFFFF" fill-opacity="0.364"/>
    <circle cx="1125.7" cy="550.5" r="3.70" fill="#177A4E" fill-opacity="0.714"/>
    <circle cx="1046.4" cy="7.0" r="3.53" fill="#FFFFFF" fill-opacity="0.376"/>
    <circle cx="479.0" cy="597.0" r="2.87" fill="#FFFFFF" fill-opacity="0.431"/>
    <circle cx="1206.8" cy="245.1" r="2.35" fill="#FFFFFF" fill-opacity="0.381"/>
    <circle cx="1278.1" cy="237.6" r="3.67" fill="#177A4E" fill-opacity="0.688"/>
    <circle cx="781.7" cy="814.8" r="2.26" fill="#FFFFFF" fill-opacity="0.390"/>
    <circle cx="723.1" cy="694.0" r="4.24" fill="#177A4E" fill-opacity="0.459"/>
  </g>
</svg>